<?xml version="1.0" encoding="UTF-8"?>
<svg xmlns="http://www.w3.org/2000/svg" width="64" height="64" viewBox="0 0 64 64">
  <g fill="#000000">
    <path d="M14 12h36a4 4 0 0 1 4 4v8a4 4 0 0 1-4 4H14a4 4 0 0 1-4-4v-8a4 4 0 0 1 4-4zm0 6a2 2 0 1 0 0 4 2 2 0 0 0 0-4z"/>
    <path d="M14 26h36a4 4 0 0 1 4 4v8a4 4 0 0 1-4 4H14a4 4 0 0 1-4-4v-8a4 4 0 0 1 4-4zm0 6a2 2 0 1 0 0 4 2 2 0 0 0 0-4z" opacity="0.85"/>
    <path d="M14 40h36a4 4 0 0 1 4 4v8a4 4 0 0 1-4 4H14a4 4 0 0 1-4-4v-8a4 4 0 0 1 4-4zm0 6a2 2 0 1 0 0 4 2 2 0 0 0 0-4z" opacity="0.7"/>
  </g>
</svg>
