<?xml version="1.0" encoding="UTF-8"?>
<svg xmlns="http://www.w3.org/2000/svg" width="960" height="960" viewBox="0 0 960 960">
  <g transform="scale(15)">
  <g fill="#000000" fill-rule="evenodd">
    <path d="M13 11h38a3 3 0 0 1 3 3v9a3 3 0 0 1-3 3H13a3 3 0 0 1-3-3v-9a3 3 0 0 1 3-3zm3.5 5.5a2 2 0 1 0 0 4 2 2 0 0 0 0-4zm7 0a2 2 0 1 0 0 4 2 2 0 0 0 0-4z"/>
    <path d="M13 30h38a3 3 0 0 1 3 3v9a3 3 0 0 1-3 3H13a3 3 0 0 1-3-3v-9a3 3 0 0 1 3-3zm3.5 5.5a2 2 0 1 0 0 4 2 2 0 0 0 0-4zm7 0a2 2 0 1 0 0 4 2 2 0 0 0 0-4z"/>
    <path d="M42 49h9a3 3 0 0 1 0 6h-9a3 3 0 0 1 0-6z"/>
    <circle cx="16" cy="52" r="3.4"/>
    <circle cx="26" cy="52" r="3.4"/>
  </g>
</g>
</svg>
